<svg xmlns="http://www.w3.org/2000/svg" xmlns:xlink="http://www.w3.org/1999/xlink" width="1920" height="1080" viewBox="0 0 1920 1080">
  <defs>
    <filter id="Path_5" x="993.37" y="493.266" width="174.802" height="63.866" filterUnits="userSpaceOnUse">
      <feOffset dy="6" input="SourceAlpha"/>
      <feGaussianBlur stdDeviation="6" result="blur"/>
      <feFlood flood-opacity="0.161"/>
      <feComposite operator="in" in2="blur"/>
      <feComposite in="SourceGraphic"/>
    </filter>
    <filter id="Rectangle_2" x="113" y="744" width="1718" height="269" filterUnits="userSpaceOnUse">
      <feOffset dx="12" dy="6" input="SourceAlpha"/>
      <feGaussianBlur stdDeviation="6" result="blur-2"/>
      <feFlood flood-opacity="0.161"/>
      <feComposite operator="in" in2="blur-2"/>
      <feComposite in="SourceGraphic"/>
    </filter>
    <filter id="Line_1" x="186.5" y="597.5" width="56" height="183" filterUnits="userSpaceOnUse">
      <feOffset dx="12" dy="6" input="SourceAlpha"/>
      <feGaussianBlur stdDeviation="6" result="blur-3"/>
      <feFlood flood-opacity="0.161"/>
      <feComposite operator="in" in2="blur-3"/>
      <feComposite in="SourceGraphic"/>
    </filter>
    <filter id="Polygon_1" x="162" y="558" width="105" height="75" filterUnits="userSpaceOnUse">
      <feOffset dx="12" dy="6" input="SourceAlpha"/>
      <feGaussianBlur stdDeviation="6" result="blur-4"/>
      <feFlood flood-opacity="0.161"/>
      <feComposite operator="in" in2="blur-4"/>
      <feComposite in="SourceGraphic"/>
    </filter>
    <filter id="Ellipse_1" x="168" y="518" width="93" height="92" filterUnits="userSpaceOnUse">
      <feOffset dx="12" dy="6" input="SourceAlpha"/>
      <feGaussianBlur stdDeviation="6" result="blur-5"/>
      <feFlood flood-opacity="0.161"/>
      <feComposite operator="in" in2="blur-5"/>
      <feComposite in="SourceGraphic"/>
    </filter>
    <filter id="Line_2" x="326.5" y="491.5" width="46" height="142" filterUnits="userSpaceOnUse">
      <feOffset dx="12" dy="6" input="SourceAlpha"/>
      <feGaussianBlur stdDeviation="6" result="blur-6"/>
      <feFlood flood-opacity="0.161"/>
      <feComposite operator="in" in2="blur-6"/>
      <feComposite in="SourceGraphic"/>
    </filter>
    <filter id="Line_6" x="461.5" y="491.5" width="46" height="142" filterUnits="userSpaceOnUse">
      <feOffset dx="12" dy="6" input="SourceAlpha"/>
      <feGaussianBlur stdDeviation="6" result="blur-7"/>
      <feFlood flood-opacity="0.161"/>
      <feComposite operator="in" in2="blur-7"/>
      <feComposite in="SourceGraphic"/>
    </filter>
    <filter id="Path_1" x="596.5" y="491.5" width="46" height="142" filterUnits="userSpaceOnUse">
      <feOffset dx="12" dy="6" input="SourceAlpha"/>
      <feGaussianBlur stdDeviation="6" result="blur-8"/>
      <feFlood flood-opacity="0.161"/>
      <feComposite operator="in" in2="blur-8"/>
      <feComposite in="SourceGraphic"/>
    </filter>
    <filter id="Path_2" x="331.14" y="487.485" width="710.531" height="48.484" filterUnits="userSpaceOnUse">
      <feOffset dx="12" dy="6" input="SourceAlpha"/>
      <feGaussianBlur stdDeviation="6" result="blur-9"/>
      <feFlood flood-opacity="0.161"/>
      <feComposite operator="in" in2="blur-9"/>
      <feComposite in="SourceGraphic"/>
    </filter>
    <filter id="Path_3" x="216.167" y="489.122" width="153.548" height="131.373" filterUnits="userSpaceOnUse">
      <feOffset dx="12" dy="6" input="SourceAlpha"/>
      <feGaussianBlur stdDeviation="6" result="blur-10"/>
      <feFlood flood-opacity="0.161"/>
      <feComposite operator="in" in2="blur-10"/>
      <feComposite in="SourceGraphic"/>
    </filter>
    <filter id="Line_7" x="731.5" y="491.5" width="46" height="142" filterUnits="userSpaceOnUse">
      <feOffset dx="12" dy="6" input="SourceAlpha"/>
      <feGaussianBlur stdDeviation="6" result="blur-11"/>
      <feFlood flood-opacity="0.161"/>
      <feComposite operator="in" in2="blur-11"/>
      <feComposite in="SourceGraphic"/>
    </filter>
    <filter id="Line_8" x="866.5" y="491.5" width="46" height="142" filterUnits="userSpaceOnUse">
      <feOffset dx="12" dy="6" input="SourceAlpha"/>
      <feGaussianBlur stdDeviation="6" result="blur-12"/>
      <feFlood flood-opacity="0.161"/>
      <feComposite operator="in" in2="blur-12"/>
      <feComposite in="SourceGraphic"/>
    </filter>
    <filter id="Path_4" x="1001.5" y="491.5" width="46" height="142" filterUnits="userSpaceOnUse">
      <feOffset dx="12" dy="6" input="SourceAlpha"/>
      <feGaussianBlur stdDeviation="6" result="blur-13"/>
      <feFlood flood-opacity="0.161"/>
      <feComposite operator="in" in2="blur-13"/>
      <feComposite in="SourceGraphic"/>
    </filter>
    <filter id="Path_6" x="1215.219" y="491.507" width="550.482" height="85.245" filterUnits="userSpaceOnUse">
      <feOffset dy="6" input="SourceAlpha"/>
      <feGaussianBlur stdDeviation="6" result="blur-14"/>
      <feFlood flood-opacity="0.161"/>
      <feComposite operator="in" in2="blur-14"/>
      <feComposite in="SourceGraphic"/>
    </filter>
    <filter id="Rectangle_22" x="1133" y="519" width="124" height="103" filterUnits="userSpaceOnUse">
      <feOffset dy="3" input="SourceAlpha"/>
      <feGaussianBlur stdDeviation="3" result="blur-15"/>
      <feFlood flood-opacity="0.161"/>
      <feComposite operator="in" in2="blur-15"/>
      <feComposite in="SourceGraphic"/>
    </filter>
    <filter id="Line_10" x="1104.624" y="466.624" width="106.753" height="77.753" filterUnits="userSpaceOnUse">
      <feOffset dy="3" input="SourceAlpha"/>
      <feGaussianBlur stdDeviation="3" result="blur-16"/>
      <feFlood flood-opacity="0.161"/>
      <feComposite operator="in" in2="blur-16"/>
      <feComposite in="SourceGraphic"/>
    </filter>
    <filter id="Line_11" x="1180.634" y="466.633" width="107.733" height="77.733" filterUnits="userSpaceOnUse">
      <feOffset dy="3" input="SourceAlpha"/>
      <feGaussianBlur stdDeviation="3" result="blur-17"/>
      <feFlood flood-opacity="0.161"/>
      <feComposite operator="in" in2="blur-17"/>
      <feComposite in="SourceGraphic"/>
    </filter>
    <filter id="Line_12" x="1106.5" y="514.5" width="180" height="28" filterUnits="userSpaceOnUse">
      <feOffset dy="3" input="SourceAlpha"/>
      <feGaussianBlur stdDeviation="3" result="blur-18"/>
      <feFlood flood-opacity="0.161"/>
      <feComposite operator="in" in2="blur-18"/>
      <feComposite in="SourceGraphic"/>
    </filter>
    <filter id="Polygon_2" x="1119" y="470" width="154" height="67" filterUnits="userSpaceOnUse">
      <feOffset dy="3" input="SourceAlpha"/>
      <feGaussianBlur stdDeviation="3" result="blur-19"/>
      <feFlood flood-opacity="0.161"/>
      <feComposite operator="in" in2="blur-19"/>
      <feComposite in="SourceGraphic"/>
    </filter>
    <filter id="Rectangle_22-2" x="1333" y="519" width="124" height="103" filterUnits="userSpaceOnUse">
      <feOffset dy="3" input="SourceAlpha"/>
      <feGaussianBlur stdDeviation="3" result="blur-20"/>
      <feFlood flood-opacity="0.161"/>
      <feComposite operator="in" in2="blur-20"/>
      <feComposite in="SourceGraphic"/>
    </filter>
    <filter id="Line_10-2" x="1304.624" y="466.624" width="106.753" height="77.753" filterUnits="userSpaceOnUse">
      <feOffset dy="3" input="SourceAlpha"/>
      <feGaussianBlur stdDeviation="3" result="blur-21"/>
      <feFlood flood-opacity="0.161"/>
      <feComposite operator="in" in2="blur-21"/>
      <feComposite in="SourceGraphic"/>
    </filter>
    <filter id="Line_11-2" x="1380.634" y="466.633" width="107.733" height="77.733" filterUnits="userSpaceOnUse">
      <feOffset dy="3" input="SourceAlpha"/>
      <feGaussianBlur stdDeviation="3" result="blur-22"/>
      <feFlood flood-opacity="0.161"/>
      <feComposite operator="in" in2="blur-22"/>
      <feComposite in="SourceGraphic"/>
    </filter>
    <filter id="Line_12-2" x="1306.5" y="514.5" width="180" height="28" filterUnits="userSpaceOnUse">
      <feOffset dy="3" input="SourceAlpha"/>
      <feGaussianBlur stdDeviation="3" result="blur-23"/>
      <feFlood flood-opacity="0.161"/>
      <feComposite operator="in" in2="blur-23"/>
      <feComposite in="SourceGraphic"/>
    </filter>
    <filter id="Polygon_2-2" x="1319" y="470" width="154" height="67" filterUnits="userSpaceOnUse">
      <feOffset dy="3" input="SourceAlpha"/>
      <feGaussianBlur stdDeviation="3" result="blur-24"/>
      <feFlood flood-opacity="0.161"/>
      <feComposite operator="in" in2="blur-24"/>
      <feComposite in="SourceGraphic"/>
    </filter>
    <filter id="Rectangle_22-3" x="1533" y="518" width="124" height="103" filterUnits="userSpaceOnUse">
      <feOffset dy="3" input="SourceAlpha"/>
      <feGaussianBlur stdDeviation="3" result="blur-25"/>
      <feFlood flood-opacity="0.161"/>
      <feComposite operator="in" in2="blur-25"/>
      <feComposite in="SourceGraphic"/>
    </filter>
    <filter id="Line_10-3" x="1504.624" y="465.624" width="106.753" height="77.753" filterUnits="userSpaceOnUse">
      <feOffset dy="3" input="SourceAlpha"/>
      <feGaussianBlur stdDeviation="3" result="blur-26"/>
      <feFlood flood-opacity="0.161"/>
      <feComposite operator="in" in2="blur-26"/>
      <feComposite in="SourceGraphic"/>
    </filter>
    <filter id="Line_11-3" x="1580.634" y="465.633" width="107.733" height="77.733" filterUnits="userSpaceOnUse">
      <feOffset dy="3" input="SourceAlpha"/>
      <feGaussianBlur stdDeviation="3" result="blur-27"/>
      <feFlood flood-opacity="0.161"/>
      <feComposite operator="in" in2="blur-27"/>
      <feComposite in="SourceGraphic"/>
    </filter>
    <filter id="Line_12-3" x="1506.5" y="513.5" width="180" height="28" filterUnits="userSpaceOnUse">
      <feOffset dy="3" input="SourceAlpha"/>
      <feGaussianBlur stdDeviation="3" result="blur-28"/>
      <feFlood flood-opacity="0.161"/>
      <feComposite operator="in" in2="blur-28"/>
      <feComposite in="SourceGraphic"/>
    </filter>
    <filter id="Polygon_2-3" x="1519" y="469" width="154" height="67" filterUnits="userSpaceOnUse">
      <feOffset dy="3" input="SourceAlpha"/>
      <feGaussianBlur stdDeviation="3" result="blur-29"/>
      <feFlood flood-opacity="0.161"/>
      <feComposite operator="in" in2="blur-29"/>
      <feComposite in="SourceGraphic"/>
    </filter>
    <filter id="Rectangle_22-4" x="1733" y="518" width="124" height="103" filterUnits="userSpaceOnUse">
      <feOffset dy="3" input="SourceAlpha"/>
      <feGaussianBlur stdDeviation="3" result="blur-30"/>
      <feFlood flood-opacity="0.161"/>
      <feComposite operator="in" in2="blur-30"/>
      <feComposite in="SourceGraphic"/>
    </filter>
    <filter id="Line_10-4" x="1704.624" y="465.624" width="106.753" height="77.753" filterUnits="userSpaceOnUse">
      <feOffset dy="3" input="SourceAlpha"/>
      <feGaussianBlur stdDeviation="3" result="blur-31"/>
      <feFlood flood-opacity="0.161"/>
      <feComposite operator="in" in2="blur-31"/>
      <feComposite in="SourceGraphic"/>
    </filter>
    <filter id="Line_11-4" x="1780.634" y="465.633" width="107.733" height="77.733" filterUnits="userSpaceOnUse">
      <feOffset dy="3" input="SourceAlpha"/>
      <feGaussianBlur stdDeviation="3" result="blur-32"/>
      <feFlood flood-opacity="0.161"/>
      <feComposite operator="in" in2="blur-32"/>
      <feComposite in="SourceGraphic"/>
    </filter>
    <filter id="Line_12-4" x="1706.5" y="513.5" width="180" height="28" filterUnits="userSpaceOnUse">
      <feOffset dy="3" input="SourceAlpha"/>
      <feGaussianBlur stdDeviation="3" result="blur-33"/>
      <feFlood flood-opacity="0.161"/>
      <feComposite operator="in" in2="blur-33"/>
      <feComposite in="SourceGraphic"/>
    </filter>
    <filter id="Polygon_2-4" x="1719" y="469" width="154" height="67" filterUnits="userSpaceOnUse">
      <feOffset dy="3" input="SourceAlpha"/>
      <feGaussianBlur stdDeviation="3" result="blur-34"/>
      <feFlood flood-opacity="0.161"/>
      <feComposite operator="in" in2="blur-34"/>
      <feComposite in="SourceGraphic"/>
    </filter>
    <clipPath id="clip-render">
      <rect width="1920" height="1080"/>
    </clipPath>
  </defs>
  <g id="render" clip-path="url(#clip-render)">
    <g id="Group_6" data-name="Group 6">
      <g transform="matrix(1, 0, 0, 1, 0, 0)" filter="url(#Path_5)">
        <path id="Path_5-2" data-name="Path 5" d="M1011.685,478.9c139.128-6.529,136.168,24.194,136.168,24.194" transform="translate(-0.2 29.8)" fill="none" stroke="#4e4e4e" stroke-width="5"/>
      </g>
      <g transform="matrix(1, 0, 0, 1, 0, 0)" filter="url(#Rectangle_2)">
        <g id="Rectangle_2-2" data-name="Rectangle 2" transform="translate(119 756)" fill="#0d6efd" stroke="#707070" stroke-width="1">
          <rect width="1682" height="233" rx="57" stroke="none"/>
          <rect x="0.5" y="0.5" width="1681" height="232" rx="56.5" fill="none"/>
        </g>
      </g>
      <g transform="matrix(1, 0, 0, 1, 0, 0)" filter="url(#Line_1)">
        <line id="Line_1-2" data-name="Line 1" y2="147" transform="translate(202.5 609.5)" fill="rgba(0,0,0,0)" stroke="#0d6efd" stroke-width="20"/>
      </g>
      <g transform="matrix(1, 0, 0, 1, 0, 0)" filter="url(#Polygon_1)">
        <g id="Polygon_1-2" data-name="Polygon 1" transform="translate(168 570)">
          <path d="M 62.34078979492188 38.49999618530273 L 6.659210205078125 38.49999618530273 C 5.662590026855469 38.49999618530273 4.78918981552124 37.93552780151367 4.379829883575439 37.0268669128418 C 3.970479965209961 36.11820602416992 4.126389980316162 35.09002685546875 4.786719799041748 34.34356689453125 L 32.62751007080078 2.871366262435913 C 33.10174942016602 2.335266351699829 33.78424835205078 2.027796268463135 34.5 2.027796268463135 C 35.21575164794922 2.027796268463135 35.89825057983398 2.335266351699829 36.37248992919922 2.871366262435913 L 64.21328735351562 34.34356689453125 C 64.87361907958984 35.09002685546875 65.02953338623047 36.11820602416992 64.62017822265625 37.0268669128418 C 64.21082305908203 37.93552780151367 63.33740997314453 38.49999618530273 62.34078979492188 38.49999618530273 Z" stroke="none"/>
          <path d="M 34.5 2.527797698974609 C 33.91896820068359 2.527797698974609 33.38697814941406 2.767467498779297 33.00201034545898 3.202644348144531 L 5.161209106445312 34.67485809326172 C 4.62493896484375 35.28106689453125 4.503250122070312 36.08354568481445 4.835700988769531 36.82148742675781 C 5.16815185546875 37.5594367980957 5.849830627441406 37.99999618530273 6.659198760986328 37.99999618530273 L 62.34078979492188 37.99999618530273 C 63.15016174316406 37.99999618530273 63.83184814453125 37.5594367980957 64.16429138183594 36.82148742675781 C 64.49674224853516 36.08354568481445 64.37505340576172 35.28106689453125 63.83877944946289 34.67484664916992 L 35.99800109863281 3.202655792236328 C 35.61302185058594 2.767467498779297 35.08102035522461 2.527797698974609 34.5 2.527797698974609 M 34.5 1.527801513671875 C 35.32500076293945 1.527801513671875 36.15000534057617 1.865226745605469 36.74699020385742 2.540077209472656 L 64.58778381347656 34.01227569580078 C 66.30064392089844 35.94854736328125 64.92594909667969 38.99999618530273 62.34078979492188 38.99999618530273 L 6.659198760986328 38.99999618530273 C 4.074050903320312 38.99999618530273 2.699348449707031 35.94854736328125 4.412208557128906 34.01227569580078 L 32.25300979614258 2.540077209472656 C 32.84999465942383 1.865226745605469 33.67499923706055 1.527801513671875 34.5 1.527801513671875 Z" stroke="none" fill="#707070"/>
        </g>
      </g>
      <g transform="matrix(1, 0, 0, 1, 0, 0)" filter="url(#Ellipse_1)">
        <g id="Ellipse_1-2" data-name="Ellipse 1" transform="translate(174 530)" stroke="#707070" stroke-width="1">
          <ellipse cx="28.5" cy="28" rx="28.5" ry="28" stroke="none"/>
          <ellipse cx="28.5" cy="28" rx="28" ry="27.5" fill="none"/>
        </g>
      </g>
      <g transform="matrix(1, 0, 0, 1, 0, 0)" filter="url(#Line_2)">
        <line id="Line_2-2" data-name="Line 2" y1="106" transform="translate(337.5 503.5)" fill="rgba(0,0,0,0)" stroke="#929292" stroke-width="10"/>
      </g>
      <g transform="matrix(1, 0, 0, 1, 0, 0)" filter="url(#Line_6)">
        <line id="Line_6-2" data-name="Line 6" y1="106" transform="translate(472.5 503.5)" fill="rgba(0,0,0,0)" stroke="#929292" stroke-width="10"/>
      </g>
      <g transform="matrix(1, 0, 0, 1, 0, 0)" filter="url(#Path_1)">
        <path id="Path_1-2" data-name="Path 1" d="M0,106V0" transform="translate(607.5 503.5)" fill="rgba(0,0,0,0)" stroke="#929292" stroke-width="10"/>
      </g>
      <g transform="matrix(1, 0, 0, 1, 0, 0)" filter="url(#Path_2)">
        <path id="Path_2-2" data-name="Path 2" d="M337.5,503.5s69.948,10.17,138.121,3.219c30.336-4.326,77.758-6.037,130.491-3.219,71.648,3.829,56.587,2.609,136.649,3.219s87.2-6.159,136.345,0,132.381,0,132.381,0" fill="none" stroke="#4e4e4e" stroke-width="5"/>
      </g>
      <g transform="matrix(1, 0, 0, 1, 0, 0)" filter="url(#Path_3)">
        <path id="Path_3-2" data-name="Path 3" d="M222.566,593.306s89.053,14.4,114.637-89.636c.059-.24-.125.527,0,0" fill="none" stroke="#4e4e4e" stroke-width="5"/>
      </g>
      <g transform="matrix(1, 0, 0, 1, 0, 0)" filter="url(#Line_7)">
        <line id="Line_7-2" data-name="Line 7" y1="106" transform="translate(742.5 503.5)" fill="rgba(0,0,0,0)" stroke="#929292" stroke-width="10"/>
      </g>
      <g transform="matrix(1, 0, 0, 1, 0, 0)" filter="url(#Line_8)">
        <line id="Line_8-2" data-name="Line 8" y1="106" transform="translate(877.5 503.5)" fill="rgba(0,0,0,0)" stroke="#929292" stroke-width="10"/>
      </g>
      <g transform="matrix(1, 0, 0, 1, 0, 0)" filter="url(#Path_4)">
        <path id="Path_4-2" data-name="Path 4" d="M0,106V0" transform="translate(1012.5 503.5)" fill="rgba(0,0,0,0)" stroke="#929292" stroke-width="10"/>
      </g>
    </g>
    <line id="Line_9" data-name="Line 9" x1="1850" transform="translate(35.5 628.5)" fill="none" stroke="#707070" stroke-linecap="round" stroke-width="40"/>
    <g id="Group_11" data-name="Group 11">
      <g transform="matrix(1, 0, 0, 1, 0, 0)" filter="url(#Path_6)">
        <path id="Path_6-2" data-name="Path 6" d="M1240.448,501.4c66.17,39.494,127.25-3.426,127.25-3.426s151.246,48.965,191.239,7.859,135.249,88.863,192.693,10.277" transform="translate(-5.95 8.37)" fill="none" stroke="#4e4e4e" stroke-width="5"/>
      </g>
      <g transform="matrix(1, 0, 0, 1, 0, 0)" filter="url(#Rectangle_22)">
        <g id="Rectangle_22-5" data-name="Rectangle 22" transform="translate(1142 525)" fill="#7b8069" stroke="#707070" stroke-width="1">
          <rect width="106" height="85" stroke="none"/>
          <rect x="0.5" y="0.5" width="105" height="84" fill="none"/>
        </g>
      </g>
      <g transform="matrix(1, 0, 0, 1, 0, 0)" filter="url(#Line_10)">
        <line id="Line_10-5" data-name="Line 10" y1="46" x2="75" transform="translate(1120.5 479.5)" fill="none" stroke="#707070" stroke-linecap="round" stroke-width="10"/>
      </g>
      <g transform="matrix(1, 0, 0, 1, 0, 0)" filter="url(#Line_11)">
        <line id="Line_11-5" data-name="Line 11" x1="76" y1="46" transform="translate(1196.5 479.5)" fill="none" stroke="#707070" stroke-linecap="round" stroke-width="10"/>
      </g>
      <g transform="matrix(1, 0, 0, 1, 0, 0)" filter="url(#Line_12)">
        <line id="Line_12-5" data-name="Line 12" x2="152" transform="translate(1120.5 525.5)" fill="none" stroke="#707070" stroke-linecap="round" stroke-width="10"/>
      </g>
      <g transform="matrix(1, 0, 0, 1, 0, 0)" filter="url(#Polygon_2)">
        <g id="Polygon_2-5" data-name="Polygon 2" transform="translate(1128 476)" fill="#707070" stroke-linecap="round">
          <path d="M 123.60693359375 48.49999237060547 L 123.6069183349609 48.49999237060547 L 12.39308452606201 48.49999237060547 C 10.5143461227417 48.49999237060547 9.440653800964355 47.24734878540039 9.062284469604492 46.07505416870117 C 8.683899879455566 44.90274810791016 8.822684288024902 43.25876235961914 10.34691524505615 42.16040802001953 L 65.95382690429688 2.090747594833374 C 66.55340576171875 1.65868616104126 67.26096343994141 1.430316925048828 67.99999237060547 1.430316925048828 C 68.73902130126953 1.430316925048828 69.44657897949219 1.65868616104126 70.04615783691406 2.090732336044312 L 125.6530838012695 42.16042327880859 C 127.1771469116211 43.25864028930664 127.3158569335938 44.90262603759766 126.9374847412109 46.07493209838867 C 126.55908203125 47.24728775024414 125.4854507446289 48.49999237060547 123.60693359375 48.49999237060547 Z" stroke="none"/>
          <path d="M 67.99999237060547 1.9302978515625 C 67.36653900146484 1.9302978515625 66.76005554199219 2.126045227050781 66.24612426757812 2.496379852294922 L 10.63922882080078 42.56606292724609 C 9.332740783691406 43.50751495361328 9.213790893554688 44.91664505004883 9.538108825683594 45.92147827148438 C 9.8624267578125 46.92629623413086 10.78274536132812 47.99999618530273 12.39307403564453 47.99999618530273 L 123.6069107055664 47.99999618530273 C 125.2172393798828 47.99999618530273 126.1375579833984 46.92629623413086 126.4618911743164 45.92147827148438 C 126.7862091064453 44.91664505004883 126.6672592163086 43.50751495361328 125.3607788085938 42.56606292724609 L 69.75382232666016 2.496379852294922 C 69.23990631103516 2.126045227050781 68.63344573974609 1.9302978515625 67.99999237060547 1.9302978515625 M 67.99999237060547 0.9303054809570312 C 68.82008361816406 0.9303054809570312 69.64017486572266 1.181896209716797 70.33846282958984 1.685081481933594 L 125.9453887939453 41.75476455688477 C 129.0955810546875 44.02476501464844 127.4897766113281 48.99999618530273 123.6069107055664 48.99999618530273 L 12.39307403564453 48.99999618530273 C 8.510223388671875 48.99999618530273 6.904403686523438 44.02476501464844 10.05461120605469 41.75476455688477 L 65.66150665283203 1.685081481933594 C 66.35980224609375 1.181896209716797 67.17989349365234 0.9303054809570312 67.99999237060547 0.9303054809570312 Z" stroke="none" fill="#707070"/>
        </g>
      </g>
    </g>
    <g id="Group_12" data-name="Group 12" transform="translate(200)">
      <g transform="matrix(1, 0, 0, 1, -200, 0)" filter="url(#Rectangle_22-2)">
        <g id="Rectangle_22-6" data-name="Rectangle 22" transform="translate(1342 525)" fill="#7b8069" stroke="#707070" stroke-width="1">
          <rect width="106" height="85" stroke="none"/>
          <rect x="0.5" y="0.5" width="105" height="84" fill="none"/>
        </g>
      </g>
      <g transform="matrix(1, 0, 0, 1, -200, 0)" filter="url(#Line_10-2)">
        <line id="Line_10-6" data-name="Line 10" y1="46" x2="75" transform="translate(1320.5 479.5)" fill="none" stroke="#707070" stroke-linecap="round" stroke-width="10"/>
      </g>
      <g transform="matrix(1, 0, 0, 1, -200, 0)" filter="url(#Line_11-2)">
        <line id="Line_11-6" data-name="Line 11" x1="76" y1="46" transform="translate(1396.5 479.5)" fill="none" stroke="#707070" stroke-linecap="round" stroke-width="10"/>
      </g>
      <g transform="matrix(1, 0, 0, 1, -200, 0)" filter="url(#Line_12-2)">
        <line id="Line_12-6" data-name="Line 12" x2="152" transform="translate(1320.5 525.5)" fill="none" stroke="#707070" stroke-linecap="round" stroke-width="10"/>
      </g>
      <g transform="matrix(1, 0, 0, 1, -200, 0)" filter="url(#Polygon_2-2)">
        <g id="Polygon_2-6" data-name="Polygon 2" transform="translate(1328 476)" fill="#707070" stroke-linecap="round">
          <path d="M 123.6069183349609 48.50000762939453 L 12.39308452606201 48.50000762939453 C 10.5143461227417 48.50000762939453 9.440638542175293 47.24734497070312 9.06226921081543 46.07505416870117 C 8.683899879455566 44.90275955200195 8.822684288024902 43.25876235961914 10.34691524505615 42.16043853759766 L 65.95378875732422 2.090745687484741 C 66.55337524414062 1.658684253692627 67.26093292236328 1.430315017700195 67.99996185302734 1.430315017700195 C 68.73899078369141 1.430315017700195 69.44654846191406 1.658684253692627 70.04612731933594 2.090730428695679 L 125.6530685424805 42.16042327880859 C 127.1772994995117 43.25876235961914 127.3160858154297 44.90275955200195 126.9377136230469 46.07506942749023 C 126.5593490600586 47.24736022949219 125.4856414794922 48.50000762939453 123.6069183349609 48.50000762939453 Z" stroke="none"/>
          <path d="M 67.99997711181641 1.930309295654297 C 67.36649322509766 1.930309295654297 66.760009765625 2.126060485839844 66.24609375 2.496376037597656 L 10.63922882080078 42.56606292724609 C 9.332740783691406 43.50751113891602 9.213790893554688 44.91664505004883 9.538108825683594 45.92147827148438 C 9.8624267578125 46.92629623413086 10.78274536132812 47.99999618530273 12.39307403564453 47.99999618530273 L 123.6069107055664 47.99999618530273 C 125.2172393798828 47.99999618530273 126.1375579833984 46.92629623413086 126.4618759155273 45.92147827148438 C 126.7861938476562 44.91664505004883 126.6672439575195 43.50751113891602 125.3607559204102 42.56606292724609 L 69.75382232666016 2.496395111083984 C 69.23989105224609 2.126060485839844 68.6334228515625 1.930309295654297 67.99997711181641 1.930309295654297 M 67.99996948242188 0.9303092956542969 C 68.820068359375 0.9303092956542969 69.64015197753906 1.181896209716797 70.33843994140625 1.685077667236328 L 125.9453735351562 41.7547607421875 C 129.0955810546875 44.02476119995117 127.4897613525391 48.99999618530273 123.6069107055664 48.99999618530273 L 12.39307403564453 48.99999618530273 C 8.510208129882812 48.99999618530273 6.904403686523438 44.02476119995117 10.05461120605469 41.7547607421875 L 65.66147613525391 1.685077667236328 C 66.35976409912109 1.181903839111328 67.17987060546875 0.9303092956542969 67.99996948242188 0.9303092956542969 Z" stroke="none" fill="#707070"/>
        </g>
      </g>
    </g>
    <g id="Group_13" data-name="Group 13" transform="translate(400 -1)">
      <g transform="matrix(1, 0, 0, 1, -400, 1)" filter="url(#Rectangle_22-3)">
        <g id="Rectangle_22-7" data-name="Rectangle 22" transform="translate(1542 524)" fill="#7b8069" stroke="#707070" stroke-width="1">
          <rect width="106" height="85" stroke="none"/>
          <rect x="0.5" y="0.5" width="105" height="84" fill="none"/>
        </g>
      </g>
      <g transform="matrix(1, 0, 0, 1, -400, 1)" filter="url(#Line_10-3)">
        <line id="Line_10-7" data-name="Line 10" y1="46" x2="75" transform="translate(1520.5 478.5)" fill="none" stroke="#707070" stroke-linecap="round" stroke-width="10"/>
      </g>
      <g transform="matrix(1, 0, 0, 1, -400, 1)" filter="url(#Line_11-3)">
        <line id="Line_11-7" data-name="Line 11" x1="76" y1="46" transform="translate(1596.5 478.5)" fill="none" stroke="#707070" stroke-linecap="round" stroke-width="10"/>
      </g>
      <g transform="matrix(1, 0, 0, 1, -400, 1)" filter="url(#Line_12-3)">
        <line id="Line_12-7" data-name="Line 12" x2="152" transform="translate(1520.5 524.5)" fill="none" stroke="#707070" stroke-linecap="round" stroke-width="10"/>
      </g>
      <g transform="matrix(1, 0, 0, 1, -400, 1)" filter="url(#Polygon_2-3)">
        <g id="Polygon_2-7" data-name="Polygon 2" transform="translate(1528 475)" fill="#707070" stroke-linecap="round">
          <path d="M 123.60693359375 48.49999237060547 L 123.6069183349609 48.49999237060547 L 12.39308452606201 48.49999237060547 C 10.5143461227417 48.49999237060547 9.440653800964355 47.24734878540039 9.062284469604492 46.07505416870117 C 8.683899879455566 44.90274810791016 8.822684288024902 43.25876235961914 10.34691524505615 42.16040802001953 L 65.95382690429688 2.090747594833374 C 66.55340576171875 1.65868616104126 67.26096343994141 1.430316925048828 67.99999237060547 1.430316925048828 C 68.73902130126953 1.430316925048828 69.44657897949219 1.65868616104126 70.04615783691406 2.090732336044312 L 125.6530838012695 42.16042327880859 C 127.1771469116211 43.25864028930664 127.3158569335938 44.90262603759766 126.9374847412109 46.07493209838867 C 126.55908203125 47.24728775024414 125.4854507446289 48.49999237060547 123.60693359375 48.49999237060547 Z" stroke="none"/>
          <path d="M 67.99999237060547 1.9302978515625 C 67.36653900146484 1.9302978515625 66.76005554199219 2.126045227050781 66.24612426757812 2.496379852294922 L 10.63922882080078 42.56606292724609 C 9.332740783691406 43.50751495361328 9.213790893554688 44.91664505004883 9.538108825683594 45.92147827148438 C 9.8624267578125 46.92629623413086 10.78274536132812 47.99999618530273 12.39307403564453 47.99999618530273 L 123.6069107055664 47.99999618530273 C 125.2172393798828 47.99999618530273 126.1375579833984 46.92629623413086 126.4618911743164 45.92147827148438 C 126.7862091064453 44.91664505004883 126.6672592163086 43.50751495361328 125.3607788085938 42.56606292724609 L 69.75382232666016 2.496379852294922 C 69.23990631103516 2.126045227050781 68.63344573974609 1.9302978515625 67.99999237060547 1.9302978515625 M 67.99999237060547 0.9303054809570312 C 68.82008361816406 0.9303054809570312 69.64017486572266 1.181896209716797 70.33846282958984 1.685081481933594 L 125.9453887939453 41.75476455688477 C 129.0955810546875 44.02476501464844 127.4897766113281 48.99999618530273 123.6069107055664 48.99999618530273 L 12.39307403564453 48.99999618530273 C 8.510223388671875 48.99999618530273 6.904403686523438 44.02476501464844 10.05461120605469 41.75476455688477 L 65.66150665283203 1.685081481933594 C 66.35980224609375 1.181896209716797 67.17989349365234 0.9303054809570312 67.99999237060547 0.9303054809570312 Z" stroke="none" fill="#707070"/>
        </g>
      </g>
    </g>
    <g id="Group_14" data-name="Group 14" transform="translate(600 -1)">
      <g transform="matrix(1, 0, 0, 1, -600, 1)" filter="url(#Rectangle_22-4)">
        <g id="Rectangle_22-8" data-name="Rectangle 22" transform="translate(1742 524)" fill="#7b8069" stroke="#707070" stroke-width="1">
          <rect width="106" height="85" stroke="none"/>
          <rect x="0.5" y="0.5" width="105" height="84" fill="none"/>
        </g>
      </g>
      <g transform="matrix(1, 0, 0, 1, -600, 1)" filter="url(#Line_10-4)">
        <line id="Line_10-8" data-name="Line 10" y1="46" x2="75" transform="translate(1720.5 478.5)" fill="none" stroke="#707070" stroke-linecap="round" stroke-width="10"/>
      </g>
      <g transform="matrix(1, 0, 0, 1, -600, 1)" filter="url(#Line_11-4)">
        <line id="Line_11-8" data-name="Line 11" x1="76" y1="46" transform="translate(1796.5 478.5)" fill="none" stroke="#707070" stroke-linecap="round" stroke-width="10"/>
      </g>
      <g transform="matrix(1, 0, 0, 1, -600, 1)" filter="url(#Line_12-4)">
        <line id="Line_12-8" data-name="Line 12" x2="152" transform="translate(1720.5 524.5)" fill="none" stroke="#707070" stroke-linecap="round" stroke-width="10"/>
      </g>
      <g transform="matrix(1, 0, 0, 1, -600, 1)" filter="url(#Polygon_2-4)">
        <g id="Polygon_2-8" data-name="Polygon 2" transform="translate(1728 475)" fill="#707070" stroke-linecap="round">
          <path d="M 123.60693359375 48.49999237060547 L 123.6069183349609 48.49999237060547 L 12.39308452606201 48.49999237060547 C 10.5143461227417 48.49999237060547 9.440653800964355 47.24734878540039 9.062284469604492 46.07505416870117 C 8.683899879455566 44.90274810791016 8.822684288024902 43.25876235961914 10.34691524505615 42.16040802001953 L 65.95382690429688 2.090747594833374 C 66.55340576171875 1.65868616104126 67.26096343994141 1.430316925048828 67.99999237060547 1.430316925048828 C 68.73902130126953 1.430316925048828 69.44657897949219 1.65868616104126 70.04615783691406 2.090732336044312 L 125.6530838012695 42.16042327880859 C 127.1771469116211 43.25864028930664 127.3158569335938 44.90262603759766 126.9374847412109 46.07493209838867 C 126.55908203125 47.24728775024414 125.4854507446289 48.49999237060547 123.60693359375 48.49999237060547 Z" stroke="none"/>
          <path d="M 67.99999237060547 1.9302978515625 C 67.36653900146484 1.9302978515625 66.76005554199219 2.126045227050781 66.24612426757812 2.496379852294922 L 10.63922882080078 42.56606292724609 C 9.332740783691406 43.50751495361328 9.213790893554688 44.91664505004883 9.538108825683594 45.92147827148438 C 9.8624267578125 46.92629623413086 10.78274536132812 47.99999618530273 12.39307403564453 47.99999618530273 L 123.6069107055664 47.99999618530273 C 125.2172393798828 47.99999618530273 126.1375579833984 46.92629623413086 126.4618911743164 45.92147827148438 C 126.7862091064453 44.91664505004883 126.6672592163086 43.50751495361328 125.3607788085938 42.56606292724609 L 69.75382232666016 2.496379852294922 C 69.23990631103516 2.126045227050781 68.63344573974609 1.9302978515625 67.99999237060547 1.9302978515625 M 67.99999237060547 0.9303054809570312 C 68.82008361816406 0.9303054809570312 69.64017486572266 1.181896209716797 70.33846282958984 1.685081481933594 L 125.9453887939453 41.75476455688477 C 129.0955810546875 44.02476501464844 127.4897766113281 48.99999618530273 123.6069107055664 48.99999618530273 L 12.39307403564453 48.99999618530273 C 8.510223388671875 48.99999618530273 6.904403686523438 44.02476501464844 10.05461120605469 41.75476455688477 L 65.66150665283203 1.685081481933594 C 66.35980224609375 1.181896209716797 67.17989349365234 0.9303054809570312 67.99999237060547 0.9303054809570312 Z" stroke="none" fill="#707070"/>
        </g>
      </g>
    </g>
  </g>
</svg>
