<svg xmlns="http://www.w3.org/2000/svg" xmlns:xlink="http://www.w3.org/1999/xlink" width="1920" height="1080" viewBox="0 0 1920 1080">
  <defs>
    <filter id="Rectangle_2" x="103" y="744" width="1718" height="269" filterUnits="userSpaceOnUse">
      <feOffset dx="2" dy="6" input="SourceAlpha"/>
      <feGaussianBlur stdDeviation="6" result="blur"/>
      <feFlood flood-opacity="0.161"/>
      <feComposite operator="in" in2="blur"/>
      <feComposite in="SourceGraphic"/>
    </filter>
    <clipPath id="clip-Web_1920_1">
      <rect width="1920" height="1080"/>
    </clipPath>
  </defs>
  <g id="Web_1920_1" data-name="Web 1920 – 1" clip-path="url(#clip-Web_1920_1)">
    <g id="Rectangle_1" data-name="Rectangle 1" transform="translate(-172 609)" fill="#cecece" stroke="#707070" stroke-width="40">
      <rect width="2264" height="528" stroke="none"/>
      <rect x="20" y="20" width="2224" height="488" fill="none"/>
    </g>
    <g transform="matrix(1, 0, 0, 1, 0, 0)" filter="url(#Rectangle_2)">
      <g id="Rectangle_2-2" data-name="Rectangle 2" transform="translate(119 756)" fill="#0d6efd" stroke="#707070" stroke-width="1">
        <rect width="1682" height="233" rx="57" stroke="none"/>
        <rect x="0.5" y="0.5" width="1681" height="232" rx="56.5" fill="none"/>
      </g>
    </g>
    <line id="Line_1" data-name="Line 1" y2="147" transform="translate(202.5 609.5)" fill="none" stroke="#0d6efd" stroke-width="20"/>
    <g id="Polygon_1" data-name="Polygon 1" transform="translate(168 570)">
      <path d="M 62.34078979492188 38.49999618530273 L 6.659210205078125 38.49999618530273 C 5.662590026855469 38.49999618530273 4.78918981552124 37.93552780151367 4.379829883575439 37.0268669128418 C 3.970479965209961 36.11820602416992 4.126389980316162 35.09002685546875 4.786719799041748 34.34356689453125 L 32.62751007080078 2.871366262435913 C 33.10174942016602 2.335266351699829 33.78424835205078 2.027796268463135 34.5 2.027796268463135 C 35.21575164794922 2.027796268463135 35.89825057983398 2.335266351699829 36.37248992919922 2.871366262435913 L 64.21328735351562 34.34356689453125 C 64.87361907958984 35.09002685546875 65.02953338623047 36.11820602416992 64.62017822265625 37.0268669128418 C 64.21082305908203 37.93552780151367 63.33740997314453 38.49999618530273 62.34078979492188 38.49999618530273 Z" stroke="none"/>
      <path d="M 34.5 2.527797698974609 C 33.91896820068359 2.527797698974609 33.38697814941406 2.767467498779297 33.00201034545898 3.202644348144531 L 5.161209106445312 34.67485809326172 C 4.62493896484375 35.28106689453125 4.503250122070312 36.08354568481445 4.835700988769531 36.82148742675781 C 5.16815185546875 37.5594367980957 5.849830627441406 37.99999618530273 6.659198760986328 37.99999618530273 L 62.34078979492188 37.99999618530273 C 63.15016174316406 37.99999618530273 63.83184814453125 37.5594367980957 64.16429138183594 36.82148742675781 C 64.49674224853516 36.08354568481445 64.37505340576172 35.28106689453125 63.83877944946289 34.67484664916992 L 35.99800109863281 3.202655792236328 C 35.61302185058594 2.767467498779297 35.08102035522461 2.527797698974609 34.5 2.527797698974609 M 34.5 1.527801513671875 C 35.32500076293945 1.527801513671875 36.15000534057617 1.865226745605469 36.74699020385742 2.540077209472656 L 64.58778381347656 34.01227569580078 C 66.30064392089844 35.94854736328125 64.92594909667969 38.99999618530273 62.34078979492188 38.99999618530273 L 6.659198760986328 38.99999618530273 C 4.074050903320312 38.99999618530273 2.699348449707031 35.94854736328125 4.412208557128906 34.01227569580078 L 32.25300979614258 2.540077209472656 C 32.84999465942383 1.865226745605469 33.67499923706055 1.527801513671875 34.5 1.527801513671875 Z" stroke="none" fill="#707070"/>
    </g>
    <g id="Ellipse_1" data-name="Ellipse 1" transform="translate(174 530)" stroke="#707070" stroke-width="1">
      <ellipse cx="28.5" cy="28" rx="28.5" ry="28" stroke="none"/>
      <ellipse cx="28.5" cy="28" rx="28" ry="27.5" fill="none"/>
    </g>
  </g>
</svg>
